<?xml version="1.0" encoding="utf-8"?>
<!-- Generator: Adobe Illustrator 27.3.1, SVG Export Plug-In . SVG Version: 6.00 Build 0)  -->
<svg version="1.1" id="Layer_1" xmlns:svgjs="http://svgjs.com/svgjs"
	 xmlns="http://www.w3.org/2000/svg" xmlns:xlink="http://www.w3.org/1999/xlink" x="0px" y="0px" width="738.8px" height="518.5px"
	 viewBox="0 0 738.8 518.5" style="enable-background:new 0 0 738.8 518.5;" xml:space="preserve">
<style type="text/css">
	.st0{fill:none;stroke:#231F20;stroke-width:4;stroke-linecap:round;stroke-linejoin:round;}
	.st1{fill:#A56250;}
	.st2{fill:#CBEAF7;}
	.st3{opacity:0.3;enable-background:new    ;}
	.st4{fill:#FFFFFF;}
	.st5{fill:none;stroke:#000000;stroke-width:4;stroke-linecap:round;stroke-linejoin:round;}
	.st6{fill:#252525;}
	.st7{fill:none;stroke:#252525;stroke-width:4;stroke-linecap:round;stroke-linejoin:round;}
	.st8{opacity:0.3;fill:#252525;enable-background:new    ;}
	.st9{fill:#231F20;}
	.st10{fill:#61CCFF;}
	.st11{opacity:0.3;fill:#08AFFF;enable-background:new    ;}
	.st12{fill:#FFC930;}
	.st13{opacity:0.3;fill:#776430;enable-background:new    ;}
</style>
<g>
	<g>
		<path class="st0" d="M282.1,64.9c71.1-10.8,169.7-7.2,230.6,74.2c60.9,81.3,8.5,131.7-78.8,64.6c-87.3-67.1-157.1-180-133.3-198.9
			C324.4-14.1,438.2,66.3,428.9,146c-9.3,79.7-139.7,96.4-152.3-2.6c-7.8-61.8,83.2-110,210.4-75.9c127.2,34.1,22,185.6-72.6,153.8
			S304,44.4,378.5,8.3c66.8-32.6,133.5,69.1,87.6,146"/>
	</g>
	<path class="st1" d="M234.3,193.6v-0.1c7.3-7.9,22.8-23.1,23-23.8c1-1,6.7-54.1,17.8-52.6c4.4,0,6.4,3.6,7.1,5.4
		c0.2,0.4,0.7,0.5,1,0.3c2.2-1.4,9.3-5.5,19.8-5.5c13.1,0.2,19.6,3,20.3,7.8c0,0,0,0.1,0.1,0.1c1.4,0.2,8.6,2.9,6.8,7.6
		c0,0.1,0,0.1,0.1,0.1c1.1,0.4,8.4,3.5,5.8,7.6v0.1c0.8,0.4,6.6,4,4.7,7.9c-4.3,7.6-31.3,6-34.9,14.6c-1.4,3.2-1.2,7.1-1.1,12
		c2.1,22.9-7.7,36.6-22.4,58.5c0,0-0.1,0.1-0.1,0c-1.6-0.6-33-12.1-34.2-12.5c0,0,0,0-0.1,0L234.3,193.6z"/>
	<g id="XMLID_00000139983321301062856510000014999935559206845065_">
		<g>
			<path class="st2" d="M577.6,428.3c9.5,27.6,1.1,42.8-4.8,49.4c-5.6,6.3-21.8,9.8-45.7,9.8c-7.1,0-14.9-0.3-22.8-0.9l1,4.3
				c0,0,0,0.1-0.1,0.1l-178.9-0.1l-0.1-0.1L301,378.9c0-0.1-0.1-0.1-0.1-0.1c-1.8-0.2-39.9-5-75.8-22.4c-8.9-4.3-17.7-9.4-25.7-15.4
				c-17.9-13.3-28.6-29.8-30.8-47.4c-1.9-15.3,2.7-31.7,12.4-43.6c9.6-11.8,32.2-35.1,53.3-56.4h0.1l48.1,39.9v0.1
				c-13.5,20.8-30.2,44.5-31.7,46.5c0,0.1,0,0.2,0.1,0.2c1.1,0,6.9,0.5,15.2,1.2c22.5,1.9,62.7,5.8,75,7.8l19.5-3.4l50.4-0.8
				c0.7,0,28.8,1.1,52.6,12.5v0.1C500.2,318,566.9,397.2,577.6,428.3z"/>
		</g>
		<g>
		</g>
	</g>
	<path class="st1" d="M341.1,280.9l0.1-7c0-0.1-0.1-0.1-0.1-0.1c-1.6,0.4-19.7,4-31.4-6.8c-14.5-14.7-4.9-43.4-6-63.6
		c-0.3-5-0.2-9.9,0.3-14.2c3.2-29.9,24.7-34.8,60.4-34.2c41.7,1.4,44.6,23.2,45.9,38.2c0.4,12.9,0.3,37.7,0.1,57.8
		c-0.2,16.4,0.2,26.6,0.2,27.4v0.1l-7.3,6.2c0,0,0,0-0.1,0l-61.9-3.7C341.2,281,341.1,281,341.1,280.9z"/>
	<path class="st3" d="M341.3,273.8C341.2,273.8,341.2,273.8,341.3,273.8l-0.1,7.2v4.6c0,0.1,0,0.1,0.1,0.1l4.7,0.1h0.1l16.4-19.9
		c0.1-0.1,0-0.2-0.1-0.1C353.3,270.4,342.1,273.6,341.3,273.8z"/>
	<path d="M400.2,252.1c-5.9,0-13.7-1.5-18.5-8.2v-0.1c1.3-1.2,22.8-22.6,12.7-35.5c-2.7-3.5-6.4-5.2-11-5.2
		c-9.6,0-20.2,7.8-20.8,8.3h-0.1c-0.9-0.3-10.3-9.3-6.8-23.6c0-0.1-0.1-0.2-0.2-0.1c-11.4,8.5-22.3,10-24.4-2.8
		c0-0.1-0.1-0.1-0.2-0.1c-6.4,4.4-12.5,6.8-18.2,6.8c-5.6-0.1-8.6-1.9-8.8-2.4c0,0,0,0,0-0.1c1.4-29.9,26.6-42,59.6-41.4
		c70,0,47.3,100.5,46.8,103.1c0,0,0,0.1-0.1,0.1C409.8,251.2,405.5,252.1,400.2,252.1z"/>
	<path class="st4" d="M360.9,288.6l-14.3,18.4c0,0.1-0.2,0-0.2,0l-5.5-17.8l0.1-8.2c0-0.1,0-0.1,0.1-0.1l69.3-2.6
		c0.1,0,0.1,0,0.1,0.1l0.3,6.4v0.1l-33.4,24.3h-0.1l-16.2-20.7C361,288.6,361,288.6,360.9,288.6z"/>
	<path class="st5" d="M321.2,241.3c1.1-3.6,4.9-5.9,8.7-4.8"/>
	<path class="st5" d="M322.7,218.7l-0.3,2.7c-0.2,1.8,0.6,3.5,2,4.7"/>
	<path d="M337.7,211.3c3.9,0.1,3.9,5.9,0,6C333.8,217.2,333.8,211.4,337.7,211.3z"/>
	<path d="M311.5,211.3c3.9,0.1,3.9,5.9,0,6C307.6,217.2,307.6,211.4,311.5,211.3z"/>
	<path class="st6" d="M360.5,322.6c8.4,0.2,8.4,12.5,0,12.7C352.1,335.1,352.1,322.8,360.5,322.6z"/>
	<path class="st6" d="M360.5,366.9c8.4,0.2,8.4,12.5,0,12.7C352.1,379.3,352.1,367.1,360.5,366.9z"/>
	<path class="st6" d="M360.5,411.2c8.4,0.2,8.4,12.5,0,12.7C352.1,423.7,352.1,411.4,360.5,411.2z"/>
	<path class="st7" d="M301,378.7l-4.1-24.6"/>
	<path class="st7" d="M250.8,280.2l-13.6,18.3"/>
	<path class="st5" d="M341.2,273.8c11.6-1.9,21.4-9.2,21.4-9.2"/>
	<path class="st5" d="M372.8,225.8l8.7-6.8"/>
	<path class="st5" d="M282.6,123.1c-3.5,1.8-14,8.4-18.9,15.5"/>
	<path class="st5" d="M323.1,125.1c-6.8-1-14.5-1.9-21.3-1c-8.7,1.2-17.5,6.8-17.5,6.8"/>
	<path class="st5" d="M336.1,140.5c-7.8,0-22.6,0.2-38,8.9"/>
	<path class="st5" d="M330.2,132.8c-4.8,0-22.6-2.8-39,6.9"/>
	<path class="st8" d="M237.1,298.4l13.5-18.2c0,0,0,0,0.1,0c0.7,0,7.3,0.6,15.1,1.2c0.1,0,0.1,0.1,0,0.2l-28.5,16.9
		C237.1,298.6,237,298.5,237.1,298.4z"/>
	<path class="st8" d="M300.9,378.8c-2.4-0.2-40-5.1-75.5-22.2c-0.1,0-0.1-0.2,0-0.2c49.9-1.8,69.9-2.3,71.3-2.4c0.1,0,0.1,0,0.1,0.1
		L300.9,378.8L300.9,378.8z"/>
	<path class="st8" d="M494.8,516.6c0.1,0.1,4.7-1.1,4.7-1.2c-0.7-8.6,13.2,6.4,10.9-3.9c-1.9-9.2-4.5-18.3-5.2-20.5
		c-0.3-1-0.9-3.9-1-4.4c0,0,0-0.1-0.1-0.1c-16.7-1.2-34.4-3.4-49.8-6.3c-10.1-1.9-19.3-3.9-26.1-5.6c-0.1,0,0,0.1,0,0.2l-2.9,16
		c0,0.1,0,0.3,0.1,0.3h18.6C480.2,506.7,492.1,513.7,494.8,516.6z"/>
	<path class="st8" d="M460.7,417.5c2.4,0,3.9,0.1,4.5,0.1c0.1,0,0.1-0.1,0.1-0.2c-6.4-8.3-14.7-18.5-21.4-30.3c0-0.1-0.2-0.1-0.2,0
		l-5.5,31.3c0,0.1,0,0.2,0.1,0.2c2-0.1,4-0.2,5.8-0.3C451.3,417.7,457,417.5,460.7,417.5z"/>
	<path class="st1" d="M438.1,418.5c-16.8,1.2-37.9,4.1-53.9,11.2c-22.4,9.5-66.3,43.5-49.3,44.4c3.1,0,11.7-4,15.9-6.2
		c0.5-0.2,1,0.4,0.6,0.8c-5.5,6-20.5,23.8-6.6,24.5c2.5,0,4.9-0.6,5.4-0.7c0.1,0,0.1,0,0.1,0.1c2.5,10.5,15.8,4.6,18.7,1.5
		c0.1-0.1,0.2,0,0.2,0.1c0,3.3,4.1,5.6,8.4,5.4c9.1-0.7,37.4-26.7,38.7-28.1h0.1c0.5,0.2,5,1.4,12,3.1c6.8,1.6,15.9,3.7,26,5.6
		c0.1,0,0.1,0,0.1-0.1c0.1-1.4,1.2-17.2-1.3-32.5c-2.4-14.4-8.6-28.3-8.9-29.3c0,0,0,0-0.1,0C442.3,418.2,440.2,418.4,438.1,418.5z"
		/>
	<path class="st7" d="M443.9,387.1c7.4,11.8,12.9,19.7,21.6,30.4"/>
	<path class="st5" d="M371.6,449.5c-6.8,5.1-15.2,13.7-21.4,19.6"/>
	<path class="st5" d="M385.1,457.3c0,0-27.1,26.6-34.9,35.3"/>
	<path class="st5" d="M398.7,465.9l-29.6,28.1"/>
	<path class="st7" d="M444.2,418.2c20.4-1.9,66.8,1.2,66.8,1.2"/>
	<path class="st7" d="M454.5,480c19.2,4.4,49.8,6.6,49.8,6.6"/>
	<path class="st9" d="M23.9,493.3h702.2c1.7,0,3.3,0.3,4.8,0.9c1.5,0.6,2.9,1.6,4.1,2.7c1.2,1.2,2.1,2.6,2.7,4.1
		c0.6,1.5,0.9,3.2,0.9,4.8c0,1.7-0.3,3.3-0.9,4.8c-0.6,1.5-1.6,2.9-2.7,4.1c-1.2,1.2-2.6,2.1-4.1,2.7c-1.5,0.6-3.2,1-4.8,1H23.9
		c-1.7,0-3.3-0.3-4.8-1c-1.5-0.6-2.9-1.5-4.1-2.7c-1.2-1.2-2.1-2.6-2.7-4.1c-0.6-1.5-1-3.2-1-4.8c0-1.7,0.3-3.3,1-4.8
		c0.6-1.5,1.6-2.9,2.7-4.1c1.2-1.2,2.6-2.1,4.1-2.7C20.6,493.6,22.3,493.3,23.9,493.3z"/>
	<g>
		<path class="st10" d="M636.7,492.1l0-146.2l53.7,0l0,146.2H636.7z"/>
		<path class="st11" d="M636.7,492.1l0-146.2l53.9,146.2H636.7z"/>
		<path d="M663.6,474.7c5.6,0,10.2-4.6,10.2-10.2s-4.6-10.2-10.2-10.2c-5.6,0-10.2,4.6-10.2,10.2S657.9,474.7,663.6,474.7z"/>
		<path class="st12" d="M583.4,492.1l0-146.2l53.7,0l0,146.2H583.4z"/>
		<path class="st13" d="M583.4,492.1l0-146.2l53.8,146.2H583.4z"/>
		<path d="M610.3,474.7c5.6,0,10.2-4.6,10.2-10.2s-4.6-10.2-10.2-10.2c-5.6,0-10.2,4.6-10.2,10.2S604.7,474.7,610.3,474.7z"/>
		<path class="st5" d="M636.7,346.8V492"/>
	</g>
	<g>
		<path class="st12" d="M70.8,456.4c-16.6,0-33.8-13.5-38.3-30.2L1.1,309.2c-2.2-8.3-1-16,3.4-21.8c4.2-5.5,10.9-8.5,18.8-8.5h188
			c16.7,0,33.8,13.6,38.3,30.3l31.4,117c2.2,8.3,0.9,16.1-3.5,21.8c-4.2,5.5-10.8,8.5-18.6,8.5H70.8z"/>
		<path class="st3" d="M172.8,456.4c-0.1-0.4-0.1-0.8-0.1-1.2c0-0.4,0-0.8-0.1-1.2c-1.2-12.1-9.1-21.9-17.5-21.9
			c-1.6,0-3.2,0.4-4.6,1c-1.4,0.7-2.7,1.6-3.8,2.8c-3.7,4.1-5.5,10.8-4.9,18l0.3,2.3l-21,0l-4.7-48.6l72.9,0l4.8,48.6H172.8z"/>
		<path class="st10" d="M93.1,493.8l23-86l73,0l-23,86H93.1z M145.9,432.2c-8.4,0-17.9,9.8-21.2,21.9c-2,7.3-1.2,14.1,1.9,18.1
			c0.9,1.2,2,2.2,3.4,2.8c1.3,0.7,2.8,1,4.3,1c8.5,0,18-9.8,21.3-21.9c1.9-7.3,1.2-14.1-2-18.2c-0.9-1.2-2-2.1-3.3-2.8
			C148.8,432.5,147.3,432.1,145.9,432.2z"/>
		<path class="st5" d="M108.8,323.6l4.6,17.2"/>
		<path class="st5" d="M130.3,323.6l4.6,17.2"/>
		<path class="st5" d="M151.7,323.6l4.6,17.2"/>
		<path class="st12" d="M199.1,493.8c0-1.7,0.3-3.4,1-5c0.6-1.6,1.6-3,2.8-4.3c1.2-1.2,2.7-2.2,4.2-2.8c1.6-0.7,3.3-1,5-1h155.9
			c3.5,0,6.8,1.4,9.3,3.8c2.5,2.5,3.8,5.8,3.8,9.3v0H199.1z"/>
		<path class="st10" d="M319.6,493.8c0-1.7,0.3-3.4,1-5c0.7-1.6,1.6-3,2.8-4.3c1.2-1.2,2.7-2.2,4.2-2.8c1.6-0.7,3.3-1,5-1h35.5
			c3.5,0,6.8,1.4,9.3,3.8c2.5,2.5,3.8,5.8,3.8,9.3v0H319.6z"/>
	</g>
</g>
</svg>
